<?xml version="1.0" encoding="utf-8"?>
<svg viewBox="0 0 500 500" xmlns="http://www.w3.org/2000/svg">
  <path id="Vector_4" d="M 250.281 495.354 L 248.603 495.354 C 183.208 495.354 121.823 469.83 75.62 423.329 C 29.428 376.941 3.902 315.2 3.902 249.535 C 3.902 183.871 29.326 122.232 75.62 75.731 C 121.823 29.343 183.31 3.716 248.603 3.716 L 250.281 3.716 C 315.677 3.716 377.062 29.24 423.264 75.731 C 469.456 122.119 494.982 183.871 494.982 249.535 C 494.982 315.2 469.559 376.839 423.264 423.329 C 377.062 469.83 315.574 495.354 250.281 495.354 Z M 248.603 31.565 C 190.584 31.565 136.064 54.232 95.028 95.437 C 54.002 136.632 31.433 191.389 31.433 249.638 C 31.433 307.887 54.002 362.643 95.028 403.848 C 136.064 445.043 190.584 467.71 248.603 467.71 L 250.281 467.71 C 308.3 467.71 362.82 445.043 403.856 403.848 C 444.882 362.643 467.451 307.887 467.451 249.638 C 467.451 191.389 444.882 136.632 403.856 95.437 C 362.82 54.232 308.3 31.565 250.281 31.565 L 248.603 31.565 Z" fill="#ECB935" style=""/>
  <path id="Vector_5" d="M 154.838 268.699 C 154.838 268.812 154.94 268.914 154.94 269.016 C 155.145 269.866 155.462 270.399 155.462 270.604 L 155.042 269.334 C 156.209 272.407 159.574 280.242 164.854 286.92 C 169.498 292.748 174.767 297.726 180.885 301.956 C 178.982 300.051 177.192 298.044 175.606 295.923 C 169.918 288.61 166.439 279.925 165.488 277.6 C 164.219 273.574 161.477 264.356 161.477 254.933 C 161.477 264.254 164.117 273.472 165.488 277.497 C 166.327 279.925 169.805 288.508 175.606 295.811 C 177.294 297.931 179.095 299.949 180.885 301.854 L 180.988 301.956 C 198.922 314.134 218.75 313.295 218.75 313.295 C 222.228 313.182 233.728 313.295 246.803 307.149 C 261.259 300.266 269.587 290.095 269.587 290.095 C 270.855 288.61 277.608 280.99 282.038 269.549 C 285.404 260.761 286.468 250.273 286.468 246.043 L 286.468 170.31 C 286.887 170.627 292.893 174.55 292.893 174.55 C 292.893 174.55 301.548 180.05 314.94 183.656 C 324.537 186.196 337.509 186.728 337.509 186.728 L 337.509 158.029 L 337.509 150.081 C 332.977 150.613 323.698 149.128 314.306 144.468 C 312.832 143.731 311.462 142.88 310.091 142.03 C 306.08 139.388 302.499 136.315 299.225 132.822 C 291.102 123.604 288.043 114.181 286.989 107.616 C 286.038 102.105 286.468 98.612 286.468 98.612 L 249.442 98.612 L 249.442 241.167 C 249.442 246.145 249.442 251.01 247.754 255.886 C 245.115 263.619 239.314 270.604 231.62 273.677 C 221.492 277.702 213.368 277.815 204.191 272.939 C 206.094 275.582 208.417 277.815 211.158 279.607 C 214.217 281.625 217.164 283.11 220.018 284.165 C 217.164 283.212 214.217 281.727 211.158 279.607 C 208.519 277.702 206.196 275.479 204.191 272.837 C 202.933 272.202 201.664 271.352 200.396 270.502 C 189.428 262.768 187.423 251.123 187.423 242.97 C 188.691 231.846 193.121 225.599 201.245 219.136 C 213.051 210.45 227.712 215.428 227.712 215.428 L 227.712 186.411 L 227.712 178.043 C 220.755 177.09 213.788 177.193 206.933 178.36 C 202.401 179.21 197.971 180.48 193.643 182.283 C 186.789 184.926 180.466 188.736 174.87 193.509 C 168.547 199.009 163.165 205.687 159.053 212.99 C 157.467 215.643 151.564 226.449 150.929 244.025 C 150.408 254.083 153.354 264.356 154.838 268.699 Z M 254.087 273.042 C 252.921 274.629 251.652 276.227 250.179 277.497 C 251.652 276.114 252.921 274.629 254.087 273.042 Z" fill="#ECB935" style=""/>
  <path id="Vector_7" d="M 175.187 344.852 C 171.606 344.852 168.649 347.822 168.649 351.417 C 168.649 355.022 171.493 357.982 175.187 357.982 C 178.778 357.982 181.724 355.022 181.724 351.417 C 181.724 347.709 178.778 344.852 175.187 344.852 Z" fill="#ECB935" style=""/>
  <path id="Vector_8" d="M 298.908 355.125 C 298.387 355.125 297.957 355.125 297.435 355.125 C 292.903 355.125 289.097 355.442 284.247 357.982 C 276.861 361.905 272.543 369.956 272.543 378.006 C 272.543 385.842 276.441 393.257 283.296 397.385 C 289.312 400.98 293.322 400.775 298.908 400.775 C 311.676 400.775 321.907 390.605 321.907 378.006 C 321.907 365.296 311.676 355.125 298.908 355.125 Z M 298.908 389.232 C 292.688 389.232 287.726 384.254 287.624 378.006 L 287.624 377.894 C 287.624 371.646 292.688 366.566 298.908 366.566 C 305.129 366.566 310.193 371.646 310.193 377.894 C 310.193 384.142 305.129 389.232 298.908 389.232 Z" fill="#ECB935" style=""/>
  <path id="Vector_9" d="M 276.861 344.749 L 235.099 344.749 L 235.099 356.292 L 248.593 356.292 L 248.593 400.56 L 262.098 400.56 L 262.098 356.292 L 273.065 356.292 L 276.861 344.749 Z" fill="#ECB935" style=""/>
  <path id="Vector_10" d="M 124.35 356.292 L 137.854 356.292 L 137.854 400.56 L 151.247 400.56 L 151.247 356.292 L 162.214 356.292 L 166.122 344.749 L 124.35 344.749 L 124.35 356.292 Z" fill="#ECB935" style=""/>
  <path id="Vector_11" d="M 355.863 373.766 L 371.997 357.562 L 356.6 357.562 L 343.31 370.908 L 343.31 344.749 L 330.235 344.749 L 330.133 400.458 L 343.31 400.458 L 343.31 385.944 L 347.535 382.237 L 360.293 400.458 L 374.432 400.458 L 355.863 373.766 Z" fill="#ECB935" style=""/>
  <path id="Vector_12" d="M 229.298 357.562 L 213.9 357.562 L 200.61 370.908 L 200.61 344.749 L 187.535 344.749 L 187.423 400.458 L 200.713 400.458 L 200.713 385.944 L 204.825 382.134 L 217.696 400.458 L 231.722 400.458 L 213.164 373.766 L 229.298 357.562 Z" fill="#ECB935" style=""/>
  <path id="Vector_13" d="M 181.837 362.54 L 168.649 362.54 L 168.649 400.56 L 181.837 400.56 L 181.837 362.54 Z" fill="#ECB935" style=""/>
</svg>