<?xml version="1.0" encoding="utf-8"?>
<svg viewBox="0 0 500 500" xmlns="http://www.w3.org/2000/svg">
  <path id="Vector" d="M 249.672 494.982 L 247.984 494.982 C 182.609 494.982 121.234 469.487 75.052 423.029 C 28.86 376.683 3.344 314.991 3.344 249.493 C 3.344 183.995 28.757 122.314 75.052 75.856 C 121.234 29.51 182.711 3.902 247.984 3.902 L 249.672 3.902 C 315.057 3.902 376.422 29.407 422.716 75.856 C 468.909 122.201 494.424 183.893 494.424 249.391 C 494.424 314.991 469.011 376.581 422.716 423.029 C 376.422 469.487 315.057 494.982 249.672 494.982 Z M 247.984 31.628 C 189.985 31.628 135.475 54.268 94.45 95.427 C 53.434 136.596 30.865 191.3 30.865 249.493 C 30.865 307.697 53.434 362.401 94.45 403.56 C 135.475 444.718 189.985 467.369 247.984 467.369 L 249.672 467.369 C 307.671 467.369 362.191 444.718 403.206 403.56 C 444.232 362.401 466.791 307.697 466.791 249.493 C 466.791 191.3 444.232 136.596 403.206 95.427 C 362.191 54.268 307.671 31.628 249.672 31.628 L 247.984 31.628 Z" fill="#ECB935" style=""/>
  <path id="Vector_2" d="M 397.088 234.679 C 395.195 160.72 334.24 101.248 259.166 101.248 C 184.931 101.248 124.395 159.339 121.234 232.142 C 121.132 234.157 121.132 236.163 121.132 238.178 C 121.132 263.99 128.406 288.227 140.959 308.863 L 116.067 382.29 L 192.522 358.063 C 212.35 368.857 235.021 375.097 259.268 375.097 C 335.509 375.097 397.303 313.835 397.303 238.178 C 397.201 237.012 397.088 235.845 397.088 234.679 Z M 259.064 353.295 C 235.441 353.295 213.506 346.318 195.264 334.256 L 150.658 348.436 L 165.104 305.681 C 151.18 286.642 143.067 263.356 143.067 238.178 C 143.067 234.362 143.271 230.658 143.588 227.067 C 149.287 168.762 198.845 123.05 259.064 123.05 C 320.009 123.05 370.099 169.928 374.734 229.185 C 374.949 232.142 375.163 235.109 375.163 238.178 C 375.163 301.66 323.068 353.295 259.064 353.295 Z" fill="#ECB935" style=""/>
  <path id="Vector_3" d="M 322.331 265.791 C 318.955 264.103 302.289 255.949 299.128 254.895 C 296.069 253.831 293.757 253.197 291.537 256.583 C 289.327 259.97 282.789 267.489 280.784 269.709 C 278.881 271.93 276.876 272.247 273.51 270.559 C 270.134 268.86 259.268 265.372 246.296 253.944 C 236.28 245.053 229.425 234.045 227.42 230.658 C 225.425 227.272 227.215 225.482 228.903 223.783 C 230.479 222.3 232.28 219.865 233.957 217.86 C 234.489 217.328 234.807 216.806 235.226 216.274 C 236.075 215.005 236.597 213.839 237.334 212.253 C 238.5 210.033 237.866 208.018 237.016 206.329 C 236.177 204.631 229.425 188.129 226.581 181.356 C 223.737 174.583 220.995 175.749 218.99 175.749 C 216.984 175.749 214.775 175.432 212.452 175.432 C 210.13 175.432 206.549 176.271 203.377 179.658 C 200.329 183.044 191.571 191.085 191.571 207.598 C 191.571 211.506 192.308 215.322 193.259 219.026 C 196.635 230.873 204.012 240.613 205.28 242.301 C 206.968 244.521 228.688 279.552 263.064 292.985 C 297.44 306.428 297.44 301.978 303.66 301.343 C 309.891 300.821 323.702 293.199 326.546 285.373 C 329.391 277.536 329.391 270.763 328.552 269.392 C 327.917 268.328 325.708 267.489 322.331 265.791 Z" fill="#ECB935" style=""/>
</svg>