<svg width="16" height="16" viewBox="0 0 16 16" fill="none" xmlns="http://www.w3.org/2000/svg">
<g id="Copyright" clip-path="url(#clip0_13_104)">
<path id="Vector" d="M6.72 7.23998C6.75334 7.01998 6.82667 6.82665 6.92 6.65998C7.01334 6.49331 7.14667 6.35331 7.31334 6.24665C7.47334 6.14665 7.67334 6.09998 7.92 6.09331C8.07334 6.09998 8.21334 6.12665 8.34 6.17998C8.47334 6.23998 8.59334 6.31998 8.68667 6.41998C8.78 6.51998 8.85334 6.63998 8.91334 6.77331C8.97334 6.90665 9 7.05331 9.00667 7.19998H10.2C10.1867 6.88665 10.1267 6.59998 10.0133 6.33998C9.9 6.07998 9.74667 5.85331 9.54667 5.66665C9.34667 5.47998 9.10667 5.33331 8.82667 5.22665C8.54667 5.11998 8.24 5.07331 7.9 5.07331C7.46667 5.07331 7.08667 5.14665 6.76667 5.29998C6.44667 5.45331 6.18 5.65331 5.96667 5.91331C5.75334 6.17331 5.59334 6.47331 5.49334 6.81998C5.39334 7.16665 5.33334 7.52665 5.33334 7.91331V8.09331C5.33334 8.47998 5.38667 8.83998 5.48667 9.18665C5.58667 9.53331 5.74667 9.83331 5.96 10.0866C6.17334 10.34 6.44 10.5466 6.76 10.6933C7.08 10.84 7.46 10.92 7.89334 10.92C8.20667 10.92 8.5 10.8666 8.77334 10.7666C9.04667 10.6666 9.28667 10.5266 9.49333 10.3466C9.7 10.1666 9.86667 9.95998 9.98667 9.71998C10.1067 9.47998 10.18 9.22665 10.1867 8.95331H8.99334C8.98667 9.09331 8.95334 9.21998 8.89334 9.33998C8.83334 9.45998 8.75333 9.55998 8.65334 9.64665C8.55334 9.73331 8.44 9.79998 8.30667 9.84665C8.18 9.89331 8.04667 9.90665 7.90667 9.91331C7.66667 9.90665 7.46667 9.85998 7.31334 9.75998C7.14667 9.65331 7.01334 9.51331 6.92 9.34665C6.82667 9.17998 6.75334 8.97998 6.72 8.75998C6.68667 8.53998 6.66667 8.31331 6.66667 8.09331V7.91331C6.66667 7.67998 6.68667 7.45998 6.72 7.23998ZM8 1.33331C4.32 1.33331 1.33334 4.31998 1.33334 7.99998C1.33334 11.68 4.32 14.6666 8 14.6666C11.68 14.6666 14.6667 11.68 14.6667 7.99998C14.6667 4.31998 11.68 1.33331 8 1.33331ZM8 13.3333C5.06 13.3333 2.66667 10.94 2.66667 7.99998C2.66667 5.05998 5.06 2.66665 8 2.66665C10.94 2.66665 13.3333 5.05998 13.3333 7.99998C13.3333 10.94 10.94 13.3333 8 13.3333Z" fill="#D9D9D9" fill-opacity="0.4"/>
</g>
<defs>
<clipPath id="clip0_13_104">
<rect width="16" height="16" fill="white"/>
</clipPath>
</defs>
</svg>
