<?xml version="1.0" encoding="utf-8"?>
<svg viewBox="0 0 500 500" xmlns="http://www.w3.org/2000/svg">
  <path id="Vector_14" d="M 249.952 494.982 L 248.262 494.982 C 182.812 494.982 121.368 469.477 75.134 423.008 C 28.786 376.653 3.344 315.062 3.344 249.443 C 3.344 183.822 28.786 122.222 75.134 75.866 C 121.368 29.407 182.812 3.902 248.262 3.902 L 249.952 3.902 C 315.401 3.902 376.846 29.407 423.193 75.866 C 469.438 122.222 494.982 183.924 494.982 249.544 C 494.982 315.165 469.54 376.765 423.193 423.223 C 376.846 469.477 315.401 494.982 249.952 494.982 Z M 248.262 31.525 C 190.197 31.525 135.626 54.176 94.553 95.345 C 53.491 136.514 30.896 191.229 30.896 249.443 C 30.896 307.656 53.491 362.37 94.553 403.539 C 135.626 444.708 190.197 467.359 248.262 467.359 L 249.952 467.359 C 308.016 467.359 362.598 444.708 403.661 403.539 C 444.733 362.37 467.328 307.656 467.328 249.443 C 467.328 191.229 444.733 136.514 403.661 95.345 C 362.598 54.176 308.016 31.525 249.952 31.525 L 248.262 31.525 Z" fill="#ECB935" style=""/>
  <path id="Vector_15" d="M 321.321 376.55 L 176.903 376.55 C 147.025 376.55 122.741 352.845 122.741 323.636 L 122.741 175.248 C 122.741 146.039 147.025 122.334 176.903 122.334 L 321.209 122.334 C 351.086 122.334 375.473 146.039 375.473 175.248 L 375.473 323.739 C 375.473 352.845 351.188 376.55 321.321 376.55 Z M 176.903 144.136 C 159.06 144.136 144.485 158.101 144.485 175.248 L 144.485 323.739 C 144.485 340.886 159.06 354.85 176.903 354.85 L 321.209 354.85 C 339.051 354.85 353.626 340.886 353.626 323.739 L 353.626 175.248 C 353.626 158.101 339.051 144.136 321.209 144.136 L 176.903 144.136 Z" fill="#ECB935" style=""/>
  <path id="Vector_16" d="M 249.112 315.482 C 212.69 315.482 183.017 285.854 183.017 249.443 C 183.017 213.03 212.69 183.402 249.112 183.402 C 285.534 183.402 315.196 213.03 315.196 249.443 C 315.196 285.854 285.534 315.482 249.112 315.482 Z M 249.112 205.204 C 224.724 205.204 204.874 224.991 204.874 249.443 C 204.874 273.781 224.724 293.681 249.112 293.681 C 273.5 293.681 293.339 273.894 293.339 249.443 C 293.339 225.103 273.5 205.204 249.112 205.204 Z" fill="#ECB935" style=""/>
  <path id="Vector_17" d="M 335.466 180.118 C 335.466 188.589 328.604 195.566 320.051 195.566 C 311.499 195.566 304.637 188.691 304.637 180.118 C 304.637 171.544 311.601 164.67 320.051 164.67 C 328.604 164.67 335.466 171.647 335.466 180.118 Z" fill="#ECB935" style=""/>
</svg>